<?xml version="1.0" encoding="utf-8"?>
<!-- Generator: Adobe Illustrator 21.0.0, SVG Export Plug-In . SVG Version: 6.00 Build 0)  -->
<svg version="1.1" id="レイヤー_1" xmlns="http://www.w3.org/2000/svg" xmlns:xlink="http://www.w3.org/1999/xlink" x="0px"
	 y="0px" viewBox="0 0 300 100" style="enable-background:new 0 0 300 100;" xml:space="preserve">
<style type="text/css">
	.st0{fill:#FFFFFF;}
</style>
<g>
	<path class="st0" d="M51.3,11.7v49.9H40.8V42.1c0-6.8,0.1-13.6,0.7-20.5h-0.6l-9.5,40h-9.4l-9.7-40h-0.6c0.5,6.8,0.6,13.5,0.6,20.5
		v19.5H1.6V11.7h17.5l4.8,19.7c1.3,5.1,2.4,12.2,2.7,17h0.6c0.3-4.9,1.3-12,2.4-17l4.7-19.8H51.3z"/>
	<path class="st0" d="M77.2,24.1c0,9.4-5.3,13.3-12.3,13.3c-6.8,0-12.3-3.9-12.3-12.6c0-9.4,5.3-13.3,12.3-13.3
		C71.7,11.5,77.2,15.4,77.2,24.1z M69.5,24.4c0-4.1-1.3-7.4-4.6-7.4c-3.1,0-4.6,2.3-4.6,7.6c0,4.1,1.3,7.4,4.6,7.4
		C68,32,69.5,29.6,69.5,24.4z"/>
	<path class="st0" d="M84.8,18.5c0.7-4.8,2.9-7.2,6.4-7.2c0.7,0,1.5,0,2.1,0.2v6.2c-0.7-0.1-1.5-0.2-2.1-0.2c-3.3,0-5.2,0.8-5.2,5.9
		V37h-7.5V11.9h6.1v6.6H84.8z"/>
	<path class="st0" d="M104,4.9c0,2.7-1.9,4.4-4.3,4.4c-2.4,0-4.2-1.5-4.2-4.4c0-2.8,1.8-4.3,4.2-4.3C102,0.6,104,2.1,104,4.9z
		 M103.5,37H96V11.9h7.5V37z"/>
</g>
<g>
	<path class="st0" d="M121.9,23.6v61.5h-12.7v-0.5c0-1.4,0.1-2.5,0.4-4.3h-0.3c-2.8,3.5-6.6,5.5-11.3,5.5
		c-11.5,0-17.7-8.1-17.7-22.8c0-13.1,7.7-22.5,18.4-22.5c4.5,0,8.1,1.7,10.7,4.9h0.2c-0.7-3.2-0.8-5.4-0.8-11.9v-9.9H121.9z
		 M109.4,62.9c0-8.8-2.6-13.1-8-13.1c-4.8,0-7.8,5-7.8,13.1c0,8.4,3.1,13.3,8.2,13.3C106.7,76.3,109.4,71.5,109.4,62.9z"/>
	<path class="st0" d="M154.8,71.3h-19.6c0.6,5.5,2.8,7.5,5.7,7.5c2.2,0,3.7-1.5,4.4-4.3l8.7,2.6c-2.8,6.7-7.5,8.4-13.1,8.4
		c-10,0-15.6-5.9-15.6-16.6c0-11.8,6.3-17.7,14.8-17.7c10.6,0,14.8,6.7,14.8,15V71.3z M145.6,64.7c-0.1-4.5-2.3-6.8-5.1-6.8
		c-2.4,0-4.6,1.5-5.3,6.8H145.6z"/>
	<path class="st0" d="M165,73.7c1.9,3.9,4.2,5.6,6.9,5.6c2.3,0,3.4-1.1,3.4-2.6c0-2.4-2.4-3.4-8.2-5.2c-6-1.9-8.8-4.4-8.8-9.6
		c0-6.4,5-10.7,12.8-10.7c6.9,0,11.7,3.1,13.1,8.7l-8,2.4c-0.8-3.1-3-4.9-5.6-4.9c-2,0-3.1,1-3.1,2.7s1.3,2.7,5.3,3.8
		c7.8,2.1,11.8,4.8,11.8,10.9c0,6.7-5.2,10.8-13.7,10.8c-6.6,0-11.7-2.7-14.1-9L165,73.7z"/>
	<path class="st0" d="M200.1,42.5c0,3.6-2.6,5.8-5.6,5.8c-3.1,0-5.5-2-5.5-5.8c0-3.7,2.4-5.6,5.5-5.6
		C197.5,36.9,200.1,38.9,200.1,42.5z M199.5,85h-9.9V51.9h9.9V85z"/>
	<path class="st0" d="M222.2,77.3c8.3,0,12.5,3.5,12.5,9.3c0,6.4-5.6,12.3-17.9,12.3c-11.6,0-15.6-4-15.6-7.8c0-3.3,2-5.2,5.3-6.5
		c-2.2-1.5-3.3-3.8-3.3-6c0-3.7,2-6.1,4.8-7.8c-2.4-1.9-3.8-4.6-3.8-8.2c0-7.6,6.6-11.2,14-11.2c1.4,0,2.8,0.1,4.1,0.4
		c1.9-5.4,6.3-7.5,11.4-7.5v8c-2.6,0-4.8,0.2-6.5,1.5c3,1.8,4.9,4.8,4.9,8.9c0,7.6-6.4,11.2-13.9,11.2c-2.3,0-4.5-0.3-6.5-1
		c-0.6,0.5-1,1.2-1,2c0,1.6,1,2.4,4.1,2.4H222.2z M213.2,86.3c-0.9,0-1.7-0.1-2.5-0.2c-0.7,0.9-0.9,1.9-0.9,2.8c0,3.1,3.5,4.1,8,4.1
		c4.2,0,6.7-1.4,6.7-3.7c0-2.3-1.9-3.1-5.7-3.1H213.2z M213.9,62.6c0,4.3,2.1,6,4.4,6s4.4-1.7,4.4-6c0-4.4-2-5.9-4.4-5.9
		S213.9,58.3,213.9,62.6z"/>
	<path class="st0" d="M248.1,56.3c1.9-3.4,5.3-5.1,9.5-5.1c5.9,0,10.5,3.5,10.5,11.3V85h-9.9V64.7c0-4.5-1.4-6-4.6-6
		c-2.8,0-5.1,1.7-5.1,6V85h-9.9V51.9h9.2v4.5H248.1z"/>
	<path class="st0" d="M279,73.7c1.9,3.9,4.2,5.6,6.9,5.6c2.3,0,3.4-1.1,3.4-2.6c0-2.4-2.4-3.4-8.2-5.2c-6-1.9-8.8-4.4-8.8-9.6
		c0-6.4,5-10.7,12.8-10.7c6.9,0,11.7,3.1,13.1,8.7l-8,2.4c-0.8-3.1-3-4.9-5.6-4.9c-2,0-3.1,1-3.1,2.7s1.3,2.7,5.3,3.8
		c7.8,2.1,11.8,4.8,11.8,10.9c0,6.7-5.2,10.8-13.7,10.8c-6.6,0-11.7-2.7-14.1-9L279,73.7z"/>
</g>
</svg>
